<svg width="39" height="39" viewBox="0 0 39 39" fill="none" xmlns="http://www.w3.org/2000/svg">
<g id="Apple">
<g id="Oval" filter="url(#filter0_d_1_2070)">
<ellipse cx="19.6215" cy="16.4576" rx="16.1215" ry="16.4007" fill="#323232"/>
</g>
<path id="Apple_2" d="M17.4678 20.2394C16.5079 20.2394 15.8064 19.3472 15.1135 18.3533C13.726 16.365 12.9284 13.0861 14.1833 10.9256C14.8429 9.78695 16.0396 9.06798 17.3064 9.04926C17.3189 9.04887 17.3317 9.04887 17.345 9.04887C17.889 9.04887 18.403 9.25111 18.8564 9.42953C19.1967 9.56353 19.4906 9.67925 19.7168 9.67925C19.9184 9.67925 20.2096 9.56526 20.5468 9.43326C21.0352 9.24203 21.643 9.00404 22.2797 9.00404C22.3616 9.00404 22.4426 9.00798 22.5206 9.01573C23.0585 9.03862 24.4043 9.22938 25.2815 10.5034C25.3 10.53 25.3068 10.5635 25.3002 10.5954C25.294 10.627 25.2747 10.6553 25.2472 10.673L25.2351 10.6804C24.9803 10.8368 23.7104 11.6996 23.7268 13.3282C23.7443 15.3334 25.4153 16.0691 25.6058 16.1464C25.6058 16.1464 25.6084 16.1476 25.6103 16.1484C25.6122 16.1491 25.6148 16.1503 25.6148 16.1503C25.6712 16.176 25.699 16.2395 25.6795 16.2981L25.6752 16.3113C25.5721 16.6398 25.266 17.4997 24.6534 18.388C24.0676 19.2374 23.4036 20.2 22.3214 20.2203C22.3061 20.2206 22.2909 20.2207 22.2759 20.2207C21.7966 20.2207 21.4651 20.0783 21.1445 19.9406L21.1413 19.9392C20.8039 19.7945 20.4551 19.6449 19.9094 19.6449C19.335 19.6449 18.9691 19.7997 18.6151 19.9493C18.3 20.0825 17.9742 20.2203 17.5228 20.2382C17.504 20.239 17.4857 20.2394 17.4678 20.2394ZM19.7492 9.09721C19.6965 9.09721 19.6437 9.09525 19.5921 9.09136C19.5351 9.08671 19.4883 9.04277 19.481 8.98689C19.3606 8.08418 19.8171 7.18812 20.2844 6.65054C20.8348 6.01125 21.7548 5.54298 22.5218 5.5118L22.5263 5.51172C22.5876 5.51172 22.641 5.55902 22.6477 5.6194C22.7366 6.42445 22.4425 7.32277 21.861 8.02241C21.3087 8.68537 20.4995 9.09721 19.7492 9.09721Z" fill="white"/>
</g>
<defs>
<filter id="filter0_d_1_2070" x="0.5" y="0.0568848" width="38.243" height="38.8013" filterUnits="userSpaceOnUse" color-interpolation-filters="sRGB">
<feFlood flood-opacity="0" result="BackgroundImageFix"/>
<feColorMatrix in="SourceAlpha" type="matrix" values="0 0 0 0 0 0 0 0 0 0 0 0 0 0 0 0 0 0 127 0" result="hardAlpha"/>
<feOffset dy="3"/>
<feGaussianBlur stdDeviation="1.5"/>
<feComposite in2="hardAlpha" operator="out"/>
<feColorMatrix type="matrix" values="0 0 0 0 0 0 0 0 0 0 0 0 0 0 0 0 0 0 0.160784 0"/>
<feBlend mode="normal" in2="BackgroundImageFix" result="effect1_dropShadow_1_2070"/>
<feBlend mode="normal" in="SourceGraphic" in2="effect1_dropShadow_1_2070" result="shape"/>
</filter>
</defs>
</svg>
